<?xml version="1.0" encoding="UTF-8"?>
<svg width="240px" height="240px" viewBox="0 0 240 240" version="1.1" xmlns="http://www.w3.org/2000/svg" xmlns:xlink="http://www.w3.org/1999/xlink">
    <!-- Generator: Sketch 58 (84663) - https://sketch.com -->
    <title>cry_pic_login</title>
    <desc>Created with Sketch.</desc>
    <g id="cry_pic_login" stroke="none" stroke-width="1" fill="none" fill-rule="evenodd">
        <rect fill="#FFFFFF" x="0" y="0" width="240" height="240"></rect>
        <g id="哭" fill-rule="nonzero">
            <rect id="矩形" fill="#000000" opacity="0" x="0" y="0" width="240" height="240"></rect>
            <path d="M120,222.400078 C63.6799219,222.400078 17.5999219,176.320078 17.5999219,120 C17.5999219,63.6799219 63.6799219,17.5999219 120,17.5999219 C176.320078,17.5999219 222.400078,63.6799219 222.400078,120 C222.400078,176.320078 176.320078,222.400078 120,222.400078 L120,222.400078 Z M120,32.9599219 C72.2132812,32.9599219 32.9599219,72.2132812 32.9599219,120 C32.9599219,167.786719 72.2132812,207.040078 120,207.040078 C167.786719,207.040078 207.040078,167.786719 207.040078,120 C207.040078,72.2132812 167.786719,32.9599219 120,32.9599219 Z" id="形状" fill="#CCCCCC"></path>
            <path d="M89.28,111.466641 C89.28,116.586563 84.1600781,120 80.7466406,120 C75.6267187,120 72.2132813,116.586797 72.2132813,111.466641 L72.2132813,96.1066406 C72.2132813,90.9867188 75.6264844,87.5732813 80.7466406,87.5732813 C85.8667969,87.5732813 89.28,90.9864844 89.28,96.1066406 L89.28,111.466641 Z M167.786719,111.466641 C167.786719,116.586563 164.373516,120 159.253359,120 C154.133203,120 150.72,116.586797 150.72,111.466641 L150.72,96.1066406 C150.72,90.9867188 154.133203,87.5732813 159.253359,87.5732813 C164.373516,87.5732813 167.786719,90.9864844 167.786719,96.1066406 L167.786719,111.466641 Z M85.8667969,167.786719 C84.1600781,167.786719 82.4535938,167.786719 80.746875,166.08 C77.3336719,162.666797 77.3336719,157.546641 80.746875,154.133203 C89.2802344,143.893125 104.640234,137.066484 120.000234,137.066484 C135.360234,137.066484 150.720234,143.893125 160.960312,154.133203 C164.373516,157.546406 164.373516,162.666563 160.960312,166.08 C157.547109,169.493203 152.426953,169.493203 149.013516,166.08 C133.653516,149.013281 106.346719,150.72 90.9867188,166.08 C89.28,167.786719 87.5735156,167.786719 85.8667969,167.786719 Z" id="形状" fill="#CCCCCC"></path>
        </g>
    </g>
</svg>